<svg aria-hidden="true" style="position: absolute; width: 0; height: 0; overflow: hidden;" version="1.1" xmlns="http://www.w3.org/2000/svg" xmlns:xlink="http://www.w3.org/1999/xlink">
<defs>
<symbol id="left" viewBox="0 0 40 34">
<path fill="#fff" style="fill: var(--color1, #fff)" d="M2.833 22.667v-17c0-3.13 2.537-5.667 5.667-5.667h22.667c3.13 0 5.667 2.537 5.667 5.667v17c0 3.13-2.537 5.667-5.667 5.667h-22.667c-3.13 0-5.667-2.537-5.667-5.667z"></path>
<path  d="M12.361 14.808l9.869 9.403c0.165 0.157 0.383 0.245 0.611 0.245s0.446-0.088 0.611-0.245l0.011-0.011c0.080-0.076 0.144-0.168 0.187-0.269s0.066-0.211 0.066-0.321-0.022-0.22-0.066-0.321c-0.044-0.102-0.107-0.193-0.187-0.269l-9.293-8.854 9.293-8.851c0.080-0.076 0.144-0.168 0.187-0.269s0.066-0.211 0.066-0.321-0.022-0.22-0.066-0.321c-0.044-0.102-0.107-0.193-0.187-0.269l-0.011-0.011c-0.165-0.157-0.383-0.245-0.611-0.245s-0.446 0.088-0.611 0.245l-9.869 9.403c-0.087 0.083-0.156 0.182-0.203 0.292s-0.072 0.229-0.072 0.349c0 0.12 0.024 0.239 0.072 0.349s0.116 0.21 0.203 0.292z"></path>
</symbol>
<symbol id="right" viewBox="0 0 40 34">
<path fill="#fff" style="fill: var(--color1, #fff)" d="M36.833 5.667v17c0 3.13-2.537 5.667-5.667 5.667h-22.667c-3.13 0-5.667-2.537-5.667-5.667v-17c0-3.13 2.537-5.667 5.667-5.667h22.667c3.13 0 5.667 2.537 5.667 5.667z"></path>
<path  d="M27.306 13.526l-9.869-9.403c-0.165-0.157-0.383-0.245-0.611-0.245s-0.446 0.088-0.611 0.245l-0.011 0.011c-0.080 0.076-0.144 0.168-0.187 0.269s-0.066 0.211-0.066 0.321 0.022 0.22 0.066 0.321c0.044 0.102 0.107 0.193 0.187 0.269l9.293 8.854-9.293 8.851c-0.080 0.076-0.144 0.168-0.187 0.269s-0.066 0.211-0.066 0.321 0.022 0.22 0.066 0.321c0.044 0.102 0.107 0.193 0.187 0.269l0.011 0.011c0.165 0.157 0.383 0.245 0.611 0.245s0.446-0.088 0.611-0.245l9.869-9.403c0.087-0.083 0.156-0.182 0.203-0.292s0.072-0.229 0.072-0.349c0-0.12-0.024-0.239-0.072-0.349s-0.116-0.21-0.203-0.292z"></path>
</symbol>
</defs>
</svg>
